#!OML:ASF F:\VICON\USERDATA\INSTALL\rory3\rory3.ASF
:FULLY-SPECIFIED
:DEGREES
1084
root 2.46031 23.2856 1.92424 -168.627 -5.62996 -178.702
lowerback 15.9454 -0.268861 -2.68108
upperback 6.09447 -1.56996 0.868442
thorax -2.37579 -1.17019 2.71892
lowerneck -21.6787 3.77166 -12.0284
upperneck 40.8291 6.32164 1.55362
head 18.7023 -0.416958 3.78946
rclavicle 1.74931e-014 -1.55052e-014
rhumerus 47.1172 -0.251211 -68.0864
rradius 76.3126
rwrist -9.3424
rhand -21.0919 -13.6726
rfingers 7.12502
rthumb 5.28562 -43.5867
lclavicle 1.74931e-014 -1.55052e-014
lhumerus 25.2091 -0.576059 77.9431
lradius 71.6223
lwrist 14.5715
lhand -23.007 37.8273
lfingers 7.12502
lthumb 3.43638 67.7794
rfemur -53.6221 -0.430165 24.6815
rtibia 97.2136
rfoot -2.94547 -3.46228
rtoes 3.34237
lfemur -29.2062 2.82036 -22.6615
ltibia 20.542
lfoot 2.60417 -10.071
ltoes -2.35516
1085
root 2.46968 23.248 1.9272 -168.554 -5.64742 -178.77
lowerback 15.808 -0.207332 -2.81386
upperback 6.10622 -1.50098 0.865072
thorax -2.29185 -1.13755 2.77422
lowerneck -21.6283 3.75866 -11.9765
upperneck 40.8686 6.31216 1.40754
head 18.7287 -0.442604 3.70702
rclavicle -1.72943e-014 4.37326e-015
rhumerus 46.3692 -0.308603 -68.2204
rradius 76.8727
rwrist -9.10658
rhand -21.0842 -13.3673
rfingers 7.12502
rthumb 5.29304 -43.2811
lclavicle -1.72943e-014 4.37326e-015
lhumerus 25.4346 -0.695453 77.9575
lradius 71.593
lwrist 14.6291
lhand -22.9388 37.887
lfingers 7.12502
lthumb 3.50215 67.838
rfemur -52.3257 -0.674283 24.5937
rtibia 95.0349
rfoot -1.29513 -4.34111
rtoes 5.14219
lfemur -29.8979 2.92345 -22.7771
ltibia 21.7703
lfoot 1.89155 -10.0828
ltoes -2.27166
1086
root 2.48109 23.2111 1.92829 -168.479 -5.7197 -178.729
lowerback 15.6342 -0.162957 -2.8606
upperback 6.13748 -1.44057 0.919572
thorax -2.16802 -1.11075 2.84191
lowerneck -21.5835 3.7522 -11.9087
upperneck 40.9068 6.31257 1.25195
head 18.7561 -0.462684 3.61954
rclavicle -1.86858e-014 -1.43125e-014
rhumerus 45.643 -0.377778 -68.2603
rradius 77.4899
rwrist -8.99865
rhand -21.1305 -13.2673
rfingers 7.12502
rthumb 5.24831 -43.1823
lclavicle -1.86858e-014 -1.43125e-014
lhumerus 25.7383 -0.796458 77.9806
lradius 71.5119
lwrist 14.6604
lhand -22.8895 38.1163
lfingers 7.12502
lthumb 3.54979 68.0665
rfemur -51.0126 -0.855947 24.6223
rtibia 92.7142
rfoot -0.507184 -5.63645
rtoes 3.07929
lfemur -30.5785 3.08892 -22.7887
ltibia 22.9602
lfoot 1.16632 -10.1684
ltoes -1.82273
1087
root 2.49424 23.1739 1.93088 -168.474 -5.90823 -178.705
lowerback 15.5317 -0.157024 -2.9103
upperback 6.20613 -1.44178 0.975125
thorax -2.03838 -1.1189 2.92424
lowerneck -21.5596 3.78148 -11.9194
upperneck 40.9686 6.32079 1.32181
head 18.7791 -0.456254 3.65728
rclavicle -5.76476e-015 1.47101e-014
rhumerus 45.0279 -0.430284 -68.332
rradius 78.0962
rwrist -8.89562
rhand -21.2229 -13.1616
rfingers 7.12502
rthumb 5.15913 -43.0788
lclavicle -5.76476e-015 1.47101e-014
lhumerus 26.0955 -0.84992 77.9421
lradius 71.4242
lwrist 14.7376
lhand -23.0559 38.2194
lfingers 7.12502
lthumb 3.38909 68.1723
rfemur -49.5697 -1.13027 24.6609
rtibia 90.2715
rfoot 0.493938 -6.78267
rtoes 3.16385
lfemur -31.2405 3.21898 -22.8034
ltibia 24.1957
lfoot 0.451248 -10.389
ltoes -1.39429
1088
root 2.50794 23.1279 1.93321 -168.491 -6.03707 -178.828
lowerback 15.5021 -0.135073 -3.12773
upperback 6.24317 -1.44722 0.976537
thorax -1.97777 -1.12798 3.04818
lowerneck -21.4066 3.78874 -12.0007
upperneck 40.8788 6.31221 1.40631
head 18.6734 -0.444193 3.7034
rclavicle 8.74653e-015 -1.03368e-014
rhumerus 44.3679 -0.38526 -68.4941
rradius 78.7015
rwrist -8.58951
rhand -21.3224 -13.1069
rfingers 7.12502
rthumb 5.06307 -43.0264
lclavicle 8.74653e-015 -1.03368e-014
lhumerus 26.3324 -0.903826 77.8794
lradius 71.4025
lwrist 14.7546
lhand -23.1618 38.0064
lfingers 7.12502
lthumb 3.28685 67.9608
rfemur -48.1427 -1.38837 24.5023
rtibia 87.7649
rfoot 1.77834 -7.76306
rtoes 5.57488
lfemur -31.8987 3.2454 -22.9318
ltibia 25.4896
lfoot -0.17151 -10.504
ltoes -1.13825
1089
root 2.52335 23.0815 1.93662 -168.526 -6.21289 -178.744
lowerback 15.4681 -0.13515 -3.10865
upperback 6.28606 -1.44712 1.01211
thorax -1.91397 -1.1321 3.07286
lowerneck -21.3074 3.78603 -11.8675
upperneck 40.7955 6.33309 1.17342
head 18.6195 -0.440217 3.56879
rclavicle 1.96797e-014 -6.36111e-015
rhumerus 43.5828 -0.349269 -68.7789
rradius 79.3234
rwrist -8.10335
rhand -21.3046 -13.124
rfingers 7.12502
rthumb 5.08024 -43.0431
lclavicle 1.96797e-014 -6.36111e-015
lhumerus 26.5558 -0.964572 77.844
lradius 71.3834
lwrist 14.6824
lhand -23.1437 37.853
lfingers 7.12502
lthumb 3.30437 67.8071
rfemur -46.7074 -1.57233 24.5704
rtibia 85.1617
rfoot 3.61346 -8.46433
rtoes 10.134
lfemur -32.6014 3.23559 -22.805
ltibia 26.8122
lfoot -0.804199 -10.5692
ltoes -0.716089
1090
root 2.53884 23.0324 1.94218 -168.477 -6.45262 -178.587
lowerback 15.331 -0.152222 -2.97361
upperback 6.33233 -1.44539 1.08104
thorax -1.79389 -1.13377 3.06341
lowerneck -21.4199 3.76846 -11.7601
upperneck 40.8887 6.34436 1.00277
head 18.725 -0.458216 3.47683
rclavicle 2.90226e-014 -2.0276e-014
rhumerus 42.8615 -0.388262 -68.9521
rradius 79.8998
rwrist -7.58788
rhand -21.3431 -13.1224
rfingers 7.12502
rthumb 5.04308 -43.0424
lclavicle 2.90226e-014 -2.0276e-014
lhumerus 26.8401 -1.06356 77.8011
lradius 71.4107
lwrist 14.6974
lhand -23.1053 37.8995
lfingers 7.12502
lthumb 3.3414 67.853
rfemur -45.2998 -1.72936 24.7248
rtibia 82.4809
rfoot 4.13103 -9.51314
rtoes 9.73712
lfemur -33.4297 3.13256 -22.5894
ltibia 28.1412
lfoot -1.38756 -10.5527
ltoes 0.156708
1091
root 2.55416 22.9805 1.94764 -168.374 -6.5662 -178.669
lowerback 15.1959 -0.117907 -3.12998
upperback 6.34083 -1.41248 1.10101
thorax -1.71116 -1.11973 3.16349
lowerneck -21.4787 3.73682 -11.8772
upperneck 40.9919 6.29505 1.12707
head 18.7941 -0.489285 3.5504
rclavicle 3.81667e-014 -5.36719e-015
rhumerus 42.1536 -0.476927 -69.0355
rradius 80.5106
rwrist -7.23592
rhand -21.3909 -13.035
rfingers 7.12502
rthumb 4.99688 -42.9561
lclavicle 3.81667e-014 -5.36719e-015
lhumerus 27.2038 -1.14896 77.7373
lradius 71.3231
lwrist 14.725
lhand -23.1022 38.256
lfingers 7.12502
lthumb 3.34439 68.2095
rfemur -43.9391 -1.81885 24.5829
rtibia 79.7175
rfoot 5.09136 -10.4888
rtoes 11.1532
lfemur -34.282 3.17383 -22.6859
ltibia 29.5029
lfoot -2.03864 -10.6495
ltoes 0.623683
1092
root 2.57142 22.9393 1.95302 -168.271 -6.64322 -178.759
lowerback 15.0408 -0.081799 -3.34588
upperback 6.34919 -1.38389 1.12085
thorax -1.61619 -1.10899 3.29741
lowerneck -21.3638 3.70792 -11.8662
upperneck 40.9564 6.24611 1.05284
head 18.7534 -0.514036 3.49841
rclavicle 2.50469e-014 -1.64991e-014
rhumerus 41.3738 -0.538351 -69.1554
rradius 81.233
rwrist -7.06386
rhand -21.3137 -12.8316
rfingers 7.12502
rthumb 5.07144 -42.7509
lclavicle 2.50469e-014 -1.64991e-014
lhumerus 27.6148 -1.18012 77.6568
lradius 71.1702
lwrist 14.7311
lhand -23.1496 38.5661
lfingers 7.12502
lthumb 3.29864 68.5204
rfemur -42.5536 -1.76268 24.3958
rtibia 76.8036
rfoot 6.11025 -11.2581
rtoes 14.0862
lfemur -35.1926 3.31603 -22.8475
ltibia 30.8667
lfoot -2.6732 -10.8043
ltoes 1.73195
1093
root 2.58741 22.9062 1.95674 -168.196 -6.79799 -178.774
lowerback 14.8708 -0.089208 -3.42035
upperback 6.36255 -1.39226 1.13979
thorax -1.50856 -1.11485 3.35551
lowerneck -21.1089 3.65825 -11.7849
upperneck 40.8021 6.1683 0.840589
head 18.6203 -0.546044 3.35643
rclavicle -1.47101e-014 -1.35174e-014
rhumerus 40.593 -0.511971 -69.3809
rradius 81.8998
rwrist -6.83913
rhand -21.3804 -12.6329
rfingers 7.12502
rthumb 5.00703 -42.5537
lclavicle -1.47101e-014 -1.35174e-014
lhumerus 27.9986 -1.22547 77.5402
lradius 70.9964
lwrist 14.7792
lhand -23.0703 38.8066
lfingers 7.12502
lthumb 3.3752 68.7597
rfemur -41.0975 -1.76208 24.2895
rtibia 73.8062
rfoot 6.6053 -12.1793
rtoes 15.5535
lfemur -36.1651 3.3811 -22.9299
ltibia 32.2289
lfoot -3.18934 -10.9699
ltoes 3.5202
1094
root 2.60772 22.8583 1.95614 -168.175 -6.57682 -178.777
lowerback 14.7592 0.0514113 -3.7227
upperback 6.33526 -1.23513 1.15978
thorax -1.48334 -1.0388 3.52117
lowerneck -20.8825 3.65134 -11.7904
upperneck 40.7463 6.12582 0.76845
head 18.5354 -0.570725 3.30511
rclavicle -5.96354e-016 -5.76476e-015
rhumerus 39.839 -0.406052 -69.6424
rradius 82.4008
rwrist -6.38484
rhand -21.7189 -12.4105
rfingers 7.12502
rthumb 4.68019 -42.3388
lclavicle -5.96354e-016 -5.76476e-015
lhumerus 28.1739 -1.26372 77.4392
lradius 70.9641
lwrist 14.8962
lhand -23.0668 38.8144
lfingers 7.12502
lthumb 3.37862 68.7674
rfemur -39.615 -1.37269 24.1852
rtibia 70.8422
rfoot 6.95503 -13.144
rtoes 16.4107
lfemur -36.9341 3.79588 -22.9529
ltibia 33.6145
lfoot -3.75849 -11.1996
ltoes 3.70855
